HIERARCHY
ROOT RootJoint
{
    OFFSET   0.000000   0.000000   0.000000
    CHANNELS 6 Xposition Yposition Zposition Xrotation Yrotation Zrotation
    JOINT pelvis_lowerback
    {
        OFFSET   0.000000   0.093605   0.000000
        CHANNELS 3 Xrotation Yrotation Zrotation
        JOINT lowerback_torso
        {
            OFFSET   0.000000   0.100000   0.000000
            CHANNELS 3 Xrotation Yrotation Zrotation
            JOINT torso_head
            {
                OFFSET   0.000000   0.282350   0.000000
                CHANNELS 3 Xrotation Yrotation Zrotation
                End Site
                {
                    OFFSET   0.000000   0.192650   0.000000
                }
            }
            JOINT rTorso_Clavicle
            {
                OFFSET  -0.001000   0.157500   0.000000
                CHANNELS 3 Xrotation Yrotation Zrotation
                JOINT rShoulder
                {
                    OFFSET  -0.117647   0.000000   0.000000
                    CHANNELS 3 Xrotation Yrotation Zrotation
                    JOINT rElbow
                    {
                        OFFSET  -0.245000   0.000000   0.000000
                        CHANNELS 3 Xrotation Yrotation Zrotation
                        JOINT rWrist
                        {
                            OFFSET  -0.240000   0.000000   0.000000
                            CHANNELS 3 Xrotation Yrotation Zrotation
                            End Site
                            {
                                OFFSET  -0.116353  -0.002500   0.000000
                            }
                        }
                    }
                }
            }
            JOINT lTorso_Clavicle
            {
                OFFSET   0.001000   0.157500   0.000000
                CHANNELS 3 Xrotation Yrotation Zrotation
                JOINT lShoulder
                {
                    OFFSET   0.117647   0.000000   0.000000
                    CHANNELS 3 Xrotation Yrotation Zrotation
                    JOINT lElbow
                    {
                        OFFSET   0.245000   0.000000   0.000000
                        CHANNELS 3 Xrotation Yrotation Zrotation
                        JOINT lWrist
                        {
                            OFFSET   0.240000   0.000000   0.000000
                            CHANNELS 3 Xrotation Yrotation Zrotation
                            End Site
                            {
                                OFFSET   0.116353  -0.002500   0.000000
                            }
                        }
                    }
                }
            }
        }
    }
    JOINT rHip
    {
        OFFSET  -0.100000  -0.051395   0.000000
        CHANNELS 3 Xrotation Yrotation Zrotation
        JOINT rKnee
        {
            OFFSET   0.000000  -0.410000   0.000000
            CHANNELS 3 Xrotation Yrotation Zrotation
            JOINT rAnkle
            {
                OFFSET   0.000000  -0.390000   0.000000
                CHANNELS 3 Xrotation Yrotation Zrotation
                JOINT rToeJoint
                {
                    OFFSET   0.000000  -0.050000   0.130000
                    CHANNELS 3 Xrotation Yrotation Zrotation
                    End Site
                    {
                        OFFSET  -0.010000   0.002000   0.060000
                    }
                }
            }
        }
    }
    JOINT lHip
    {
        OFFSET   0.100000  -0.051395   0.000000
        CHANNELS 3 Xrotation Yrotation Zrotation
        JOINT lKnee
        {
            OFFSET   0.000000  -0.410000   0.000000
            CHANNELS 3 Xrotation Yrotation Zrotation
            JOINT lAnkle
            {
                OFFSET   0.000000  -0.390000   0.000000
                CHANNELS 3 Xrotation Yrotation Zrotation
                JOINT lToeJoint
                {
                    OFFSET   0.000000  -0.050000   0.130000
                    CHANNELS 3 Xrotation Yrotation Zrotation
                    End Site
                    {
                        OFFSET   0.010000   0.002000   0.060000
                    }
                }
            }
        }
    }
}
MOTION
Frames: 8
Frame Time:   0.008333
 -2.871548   0.884520   4.380420 -28.137409  22.966087  47.738850  38.480245   0.962733  -4.100369  10.464397  -1.947520  -4.882861   1.681161   7.163809  -6.507726   4.110886   3.808757   7.280620   1.350222   1.433836  26.695340  -0.079927  47.123582   0.049214   3.995236   5.633867 -16.383330   0.771293  -2.120434  -9.078636  14.201611  -0.040741 -42.267277  -0.000274 -32.763792  -0.000929   1.082723  -5.157218   7.804903  -0.471057   1.031110 -29.536995  58.440314   0.022878  -0.049748 -30.729977  -1.034556  11.256945  -1.455736   0.028948  -0.029080 -65.466376   4.588192  26.908574  36.836629   0.001687   0.003382   2.552053   6.402927 -12.770281   2.152495  -0.000647  -0.002015
 -2.873044   0.879422   4.381375 -28.491261  23.160808  47.440251  38.472085   0.935804  -3.587411  10.511367  -1.912075  -4.215200   1.777175   7.359254  -6.580222   4.231715   3.668964   7.557819   2.070935   1.178378  27.173808  -0.077238  46.279268   0.044157   3.816493   5.465129 -15.928653   0.770900  -2.119226  -9.020667  14.123967  -0.185599 -42.481046   0.000017 -32.708512  -0.000692   1.070254  -5.176466   7.582742  -0.161833   0.732852 -29.803622  57.909241   0.016298  -0.037302 -30.655759  -2.099632  10.942084  -0.547194   0.030836  -0.032711 -65.415474   4.605408  27.007717  37.267283   0.001799   0.004840   2.163203   6.628014 -12.603582   2.307149  -0.000562  -0.000484
 -2.874963   0.873579   4.382552 -28.696683  23.403329  47.132202  38.382144   0.905755  -3.289131  10.496288  -1.883467  -3.624832   1.868637   7.541716  -6.664886   4.360723   3.516112   7.845237   2.760008   0.944946  27.662014  -0.072409  45.501616   0.039166   3.650901   5.333550 -15.396894   0.800834  -2.083764  -8.881051  14.075040  -0.287399 -42.646257   0.000217 -32.650522  -0.000521   1.055748  -5.187119   7.419475   0.108021   0.429093 -29.929982  56.903751   0.010033  -0.026546 -30.580861  -3.095646  10.644005   0.465786   0.031108  -0.035090 -65.414668   4.625465  27.105183  37.672834   0.001783   0.005522   1.796754   6.842187 -12.445163   2.423785  -0.000512   0.000362
 -2.877174   0.866978   4.383820 -28.825397  23.654979  46.841991  38.274318   0.876395  -3.114989  10.456503  -1.868385  -3.132812   1.950325   7.711126  -6.758396   4.489272   3.354688   8.108247   3.410883   0.724020  28.123468  -0.066283  44.778280   0.034558   3.497524   5.223200 -14.872778   0.838099  -2.038976  -8.706661  14.036905  -0.366601 -42.774221   0.000330 -32.591676  -0.000404   1.039170  -5.174942   7.307063   0.319517   0.136072 -29.962815  55.826425   0.005550  -0.018792 -30.518702  -4.024767  10.366982   1.413148   0.029311  -0.035559 -65.406726   4.647594  27.172156  38.060062   0.001723   0.005675   1.454234   7.041245 -12.295515   2.529063  -0.000477   0.000875
 -2.879996   0.862432   4.384664 -29.126552  23.762767  46.613424  38.470574   0.816234  -2.804295  10.548021  -1.884025  -2.724811   2.025841   7.867448  -6.871003   4.562040   3.269756   8.362106   3.983889   0.544608  28.512601  -0.061526  44.085416   0.031799   3.327400   5.032198 -14.473659   0.802570  -2.084541  -8.716010  13.945688  -0.504475 -42.948760   0.000261 -32.541792  -0.000418   1.019231  -5.145561   7.208703   0.191992  -0.331503 -29.319737  56.252390   0.002818  -0.014766 -32.230471  -4.430709   9.956204   2.489539   0.021923  -0.031807 -65.031784   4.832696  27.088843  38.441625   0.002193   0.005749   1.131633   7.227278 -12.153170   2.617137  -0.000336   0.001206
 -2.882868   0.859408   4.385550 -29.614957  24.040637  46.554054  38.634032   0.658593  -2.440055  10.695920  -1.972197  -2.295910   2.124036   8.007770  -6.962587   4.650412   3.159174   8.622383   4.534789   0.364317  28.894610  -0.057141  43.432360   0.029560   3.159905   4.819724 -14.063357   0.757878  -2.148079  -8.800300  13.850477  -0.663990 -43.166765   0.000158 -32.506270  -0.000401   1.010331  -5.167422   6.998490   0.161473  -0.459727 -28.594848  56.931847   0.001908  -0.008646 -32.673124  -4.862065   9.635858   2.487380   0.017537  -0.025446 -64.584084   5.120190  26.697672  38.861074   0.002990   0.006057   0.833315   7.396249 -12.022230   2.713336  -0.000149   0.001560
 -2.885747   0.857291   4.386553 -30.036242  24.387916  46.538602  38.706494   0.515350  -2.153031  10.809537  -2.067049  -1.903774   2.219055   8.139296  -7.041590   4.755304   3.023665   8.881011   5.067158   0.184207  29.275769  -0.052511  42.822376   0.027282   3.001347   4.613541 -13.620018   0.729522  -2.191833  -8.890597  13.771616  -0.811399 -43.393155   0.000065 -32.475806  -0.000363   1.005379  -5.219110   6.720186   0.173353  -0.605586 -27.916538  57.344392   0.001500  -0.004815 -32.973192  -5.355296   9.329549   2.487642   0.014028  -0.020358 -64.143729   5.436907  26.261646  39.298709   0.003576   0.006166   0.556705   7.551825 -11.900863   2.807601  -0.000032   0.001795
 -2.888956   0.856459   4.387804 -30.362254  24.905928  46.427292  38.527469   0.396162  -1.872057  10.907347  -2.184357  -1.508840   2.358940   8.318966  -7.108325   4.828330   2.845432   9.091613   5.557623   0.080260  29.773693  -0.048616  42.151804   0.024722   2.859564   4.411603 -13.081830   0.789670  -2.160225  -9.008164  13.754256  -0.953698 -43.634211  -0.000183 -32.404396  -0.000399   1.114967  -5.383751   6.396417   0.194038  -0.839808 -27.090504  57.338576   0.001200  -0.003887 -33.023436  -5.938167   8.841063   2.458438   0.011201  -0.016281 -63.560818   5.656323  25.717086  39.687338   0.003741   0.005581  -0.025516   7.813564 -11.510279   2.738954   0.000096   0.001067
